<svg width="134" height="128" viewBox="0 0 134 128" fill="none" xmlns="http://www.w3.org/2000/svg">
<g id="color=Green, size=128">
<g id="Union">
<mask id="path-1-inside-1_1709_437" fill="white">
<path fill-rule="evenodd" clip-rule="evenodd" d="M0 52.0583L8.33654 55.0898C12.048 23.6739 38.9811 0.585693 71.0688 0.585693C105.743 0.585693 133.815 28.998 133.815 64.0001C133.815 99.0022 105.743 127.415 71.0688 127.415C38.9811 127.415 12.048 104.326 8.33654 72.9102L0 75.9417L9.95141 64L19.9028 75.9417L12.4065 73.2158C16.2247 102.146 41.1859 123.415 71.0688 123.415C103.493 123.415 129.815 96.8344 129.815 64.0001C129.815 31.1657 103.493 4.58569 71.0688 4.58569C41.1858 4.58569 16.2246 25.854 12.4064 54.7843L19.9028 52.0583L9.95141 64L0 52.0583ZM51.9964 88.5407H85.9964V80.5407H63.5277L85.4027 49.1032V42.8532H52.5902V50.8532H73.9027L51.9964 82.2594V88.5407Z"/>
</mask>
<path fill-rule="evenodd" clip-rule="evenodd" d="M0 52.0583L8.33654 55.0898C12.048 23.6739 38.9811 0.585693 71.0688 0.585693C105.743 0.585693 133.815 28.998 133.815 64.0001C133.815 99.0022 105.743 127.415 71.0688 127.415C38.9811 127.415 12.048 104.326 8.33654 72.9102L0 75.9417L9.95141 64L19.9028 75.9417L12.4065 73.2158C16.2247 102.146 41.1859 123.415 71.0688 123.415C103.493 123.415 129.815 96.8344 129.815 64.0001C129.815 31.1657 103.493 4.58569 71.0688 4.58569C41.1858 4.58569 16.2246 25.854 12.4064 54.7843L19.9028 52.0583L9.95141 64L0 52.0583ZM51.9964 88.5407H85.9964V80.5407H63.5277L85.4027 49.1032V42.8532H52.5902V50.8532H73.9027L51.9964 82.2594V88.5407Z" fill="#059950"/>
<path d="M8.33654 55.0898L7.9948 56.0295L9.18149 56.4611L9.32964 55.2071L8.33654 55.0898ZM0 52.0583L0.341739 51.1185L-3.1399 49.8525L-0.768221 52.6985L0 52.0583ZM8.33654 72.9102L9.32963 72.7929L9.18148 71.5389L7.99479 71.9704L8.33654 72.9102ZM0 75.9417L-0.768221 75.3015L-3.13993 78.1476L0.341746 76.8815L0 75.9417ZM19.9028 75.9417L19.5611 76.8815L23.0427 78.1475L20.671 75.3015L19.9028 75.9417ZM12.4065 73.2158L12.7482 72.276L11.1994 71.7128L11.4151 73.3466L12.4065 73.2158ZM12.4064 54.7843L11.415 54.6535L11.1994 56.2873L12.7482 55.7241L12.4064 54.7843ZM19.9028 52.0583L20.671 52.6985L23.0428 49.8524L19.5611 51.1185L19.9028 52.0583ZM85.9964 88.5407V89.5407H86.9964V88.5407H85.9964ZM51.9964 88.5407H50.9964V89.5407H51.9964V88.5407ZM85.9964 80.5407H86.9964V79.5407H85.9964V80.5407ZM63.5277 80.5407L62.7068 79.9695L61.6136 81.5407H63.5277V80.5407ZM85.4027 49.1032L86.2235 49.6743L86.4027 49.4168V49.1032H85.4027ZM85.4027 42.8532H86.4027V41.8532H85.4027V42.8532ZM52.5902 42.8532V41.8532H51.5902V42.8532H52.5902ZM52.5902 50.8532H51.5902V51.8532H52.5902V50.8532ZM73.9027 50.8532L74.7229 51.4253L75.8194 49.8532H73.9027V50.8532ZM51.9964 82.2594L51.1762 81.6873L50.9964 81.9451V82.2594H51.9964ZM8.67828 54.15L0.341739 51.1185L-0.341739 52.9981L7.9948 56.0295L8.67828 54.15ZM71.0688 -0.414307C38.498 -0.414307 11.1172 23.0299 7.34345 54.9724L9.32964 55.2071C12.9789 24.318 39.4642 1.58569 71.0688 1.58569V-0.414307ZM134.815 64.0001C134.815 28.4561 106.306 -0.414307 71.0688 -0.414307V1.58569C105.181 1.58569 132.815 29.5398 132.815 64.0001H134.815ZM71.0688 128.415C106.306 128.415 134.815 99.5441 134.815 64.0001H132.815C132.815 98.4604 105.181 126.415 71.0688 126.415V128.415ZM7.34344 73.0275C11.1171 104.97 38.498 128.415 71.0688 128.415V126.415C39.4641 126.415 12.9789 103.682 9.32963 72.7929L7.34344 73.0275ZM0.341746 76.8815L8.67828 73.85L7.99479 71.9704L-0.341746 75.0019L0.341746 76.8815ZM9.18319 63.3598L-0.768221 75.3015L0.768221 76.5819L10.7196 64.6402L9.18319 63.3598ZM20.671 75.3015L10.7196 63.3598L9.18319 64.6402L19.1346 76.5819L20.671 75.3015ZM12.0647 74.1556L19.5611 76.8815L20.2446 75.0019L12.7482 72.276L12.0647 74.1556ZM71.0688 122.415C41.6651 122.415 17.1475 101.496 13.3979 73.0849L11.4151 73.3466C15.3018 102.796 40.7067 124.415 71.0688 124.415V122.415ZM128.815 64.0001C128.815 96.2924 102.93 122.415 71.0688 122.415V124.415C104.055 124.415 130.815 97.3765 130.815 64.0001H128.815ZM71.0688 5.58569C102.93 5.58569 128.815 31.7078 128.815 64.0001H130.815C130.815 30.6237 104.055 3.58569 71.0688 3.58569V5.58569ZM13.3978 54.9151C17.1475 26.5043 41.665 5.58569 71.0688 5.58569V3.58569C40.7067 3.58569 15.3018 25.2038 11.415 54.6535L13.3978 54.9151ZM19.5611 51.1185L12.0647 53.8445L12.7482 55.7241L20.2446 52.9981L19.5611 51.1185ZM10.7196 64.6402L20.671 52.6985L19.1346 51.4181L9.18319 63.3598L10.7196 64.6402ZM-0.768221 52.6985L9.18319 64.6402L10.7196 63.3598L0.768221 51.4181L-0.768221 52.6985ZM85.9964 87.5407H51.9964V89.5407H85.9964V87.5407ZM84.9964 80.5407V88.5407H86.9964V80.5407H84.9964ZM63.5277 81.5407H85.9964V79.5407H63.5277V81.5407ZM84.5818 48.532L62.7068 79.9695L64.3485 81.1118L86.2235 49.6743L84.5818 48.532ZM84.4027 42.8532V49.1032H86.4027V42.8532H84.4027ZM52.5902 43.8532H85.4027V41.8532H52.5902V43.8532ZM53.5902 50.8532V42.8532H51.5902V50.8532H53.5902ZM73.9027 49.8532H52.5902V51.8532H73.9027V49.8532ZM52.8166 82.8315L74.7229 51.4253L73.0825 50.2811L51.1762 81.6873L52.8166 82.8315ZM52.9964 88.5407V82.2594H50.9964V88.5407H52.9964Z" fill="#059950" mask="url(#path-1-inside-1_1709_437)"/>
</g>
</g>
</svg>
